<svg width="151" height="151" viewBox="0 0 151 151" fill="none" xmlns="http://www.w3.org/2000/svg">
<g opacity="0.7">
<path d="M133.799 132.112H17.1951C14.9474 132.112 12.8704 130.913 11.7465 128.967C10.6227 127.02 10.6227 124.622 11.7465 122.675L70.0451 22.0083C71.1699 20.0649 73.2451 18.8682 75.4906 18.8682C77.736 18.8682 79.8112 20.0649 80.936 22.0083L139.235 122.675C140.358 124.621 140.359 127.018 139.236 128.964C138.114 130.91 136.039 132.11 133.792 132.112H133.799ZM75.5 37.7374L28.1175 119.529H122.895L75.5 37.7374ZM81.7602 94.3687H69.1769V62.9041H81.7602V94.3687Z" fill="#777073"/>
<path d="M69.2083 100.667H81.7917V113.25H69.2083V100.667Z" fill="#777073"/>
</g>
</svg>
